<?xml version="1.0" encoding="UTF-8" standalone="no"?><!DOCTYPE svg PUBLIC "-//W3C//DTD SVG 1.1//EN" "http://www.w3.org/Graphics/SVG/1.1/DTD/svg11.dtd"><svg width="1542" height="386" viewBox="0 0 1542 386" version="1.1" xmlns="http://www.w3.org/2000/svg" xmlns:xlink="http://www.w3.org/1999/xlink" xml:space="preserve" xmlns:serif="http://www.serif.com/" style="fill-rule:evenodd;clip-rule:evenodd;stroke-linejoin:round;stroke-miterlimit:1.41421;"><rect id="Artboard1" x="0" y="0" width="1542" height="385.5" style="fill:none;"/><clipPath id="_clip1"><rect id="Artboard11" serif:id="Artboard1" x="0" y="0" width="1542" height="385.5"/></clipPath><g clip-path="url(#_clip1)"><path d="M210.273,385.5l0,-70.091l-210.273,0l0,-280.364l280.364,0l0,70.091l-210.273,0l0,140.182l140.182,0l0,-70.091l35.045,0l0,-35.045l35.046,0l0,210.273l-35.046,0l0,35.045l-35.045,0Z" style="fill:#d72121;fill-rule:nonzero;stroke:#f3e4e4;stroke-width:1px;"/><path d="M420.545,315.409l0,-140.182l-35.045,0l0,-35.045l-35.045,0l0,-35.046l-35.046,0l0,-105.136l35.046,0l0,35.045l35.045,0l0,35.046l35.045,0l0,35.045l70.091,0l0,-35.045l35.046,0l0,-35.046l105.136,0l0,35.046l-35.045,0l0,35.045l-35.046,0l0,35.046l-35.045,0l0,35.045l-35.046,0l0,140.182l-70.091,0Z" style="fill:#d72121;fill-rule:nonzero;stroke:#f3e4e4;stroke-width:1px;"/><path d="M876.136,385.5l0,-35.045l-35.045,0l0,-35.046l-35.046,0l0,-35.045l-35.045,0l0,-35.046l-35.045,0l0,-35.045l-35.046,0l0,105.136l-70.091,0l0,-175.227l210.273,0l0,-35.046l-210.273,0l0,-70.091l280.364,0l0,175.228l-70.091,0l0,35.045l35.045,0l0,35.046l35.046,0l0,105.136l-35.046,0Z" style="fill:#d72121;fill-rule:nonzero;stroke:#f3e4e4;stroke-width:1px;"/><path d="M1156.5,245.318l0,-140.182l-140.182,0l0,140.182l140.182,0Zm-210.273,70.091l0,-280.364l280.364,0l0,280.364l-280.364,0Z" style="fill:#d72121;fill-rule:nonzero;stroke:#f3e4e4;stroke-width:1px;"/><path d="M1471.91,385.5l0,-70.091l-210.273,0l0,-280.364l280.364,0l0,70.091l-210.273,0l0,140.182l140.182,0l0,-70.091l35.046,0l0,-35.045l35.045,0l0,210.273l-35.045,0l0,35.045l-35.046,0Z" style="fill:#d72121;fill-rule:nonzero;stroke:#f3e4e4;stroke-width:1px;"/></g></svg>
