<?xml version="1.0" encoding="UTF-8" standalone="no"?><!DOCTYPE svg PUBLIC "-//W3C//DTD SVG 1.1//EN" "http://www.w3.org/Graphics/SVG/1.1/DTD/svg11.dtd"><svg width="300" height="400" viewBox="0 0 300 400" version="1.1" xmlns="http://www.w3.org/2000/svg" xmlns:xlink="http://www.w3.org/1999/xlink" xml:space="preserve" xmlns:serif="http://www.serif.com/" style="fill-rule:evenodd;clip-rule:evenodd;stroke-linejoin:round;stroke-miterlimit:1.41421;"><rect id="Artboard2" x="0" y="0" width="300" height="400" style="fill:none;"/><g id="Artboard21" serif:id="Artboard2"><g id="Layer1"><path d="M150,4l58,296l-116,0l58,-296Z" style="fill:#ff002f;"/><path d="M46,180l46,120l-92,0l46,-120Z" style="fill:#ff002f;"/><path d="M92,328.196c0,-15.562 -12.634,-28.196 -28.196,-28.196l-35.608,0c-15.562,0 -28.196,12.634 -28.196,28.196l0,30.608c0,15.562 12.634,28.196 28.196,28.196l35.608,0c15.562,0 28.196,-12.634 28.196,-28.196l0,-30.608Z" style="fill:#ff002f;"/><rect x="0" y="300" width="92" height="58.804" style="fill:#ff002f;"/><path d="M254,180l46,120l-92,0l46,-120Z" style="fill:#ff002f;"/><path d="M300,328.196c0,-15.562 -12.634,-28.196 -28.196,-28.196l-35.608,0c-15.562,0 -28.196,12.634 -28.196,28.196l0,30.608c0,15.562 12.634,28.196 28.196,28.196l35.608,0c15.562,0 28.196,-12.634 28.196,-28.196l0,-30.608Z" style="fill:#ff002f;"/><rect x="208" y="300" width="92" height="58.804" style="fill:#ff002f;"/><path d="M150,387l58,-87l-116,0l58,87Z" style="fill:#ff002f;"/></g><g id="Layer2"><path d="M150,180l26.5,120l-53,0l26.5,-120Z" style="fill:#0e00ff;"/></g></g></svg>
